#!OML:ASF C:\ViconDB\ViconDB\414\Spring2016\041811\Spring2016.ASF
:FULLY-SPECIFIED
:DEGREES
347
root 11.3446 17.5684 -12.0088 -176.738 4.25421 -190.953
lowerback -3.72405 -0.249263 -3.83503
upperback -0.239155 -0.0583188 -1.85087
thorax 1.8472 -0.0203877 0.24652
lowerneck -11.6632 -2.05144 -11.1345
upperneck 27.7008 -0.452381 6.7857
head 10.9169 0.102498 4.4665
rclavicle -1.9133e-015 -3.97569e-015
rhumerus -85.7936 30.0912 -120.191
rradius 86.3312
rwrist 29.0185
rhand -48.4301 -4.0149
rfingers 7.12502
rthumb -21.0816 -32.8889
lclavicle -1.9133e-015 -3.97569e-015
lhumerus -86.601 -46.3871 116.078
lradius 82.2756
lwrist -27.8961
lhand -39.7343 -2.97337
lfingers 7.12502
lthumb -12.7117 26.6197
rfemur 383.808 -215.22 26.8306
rtibia 29.6257
rfoot -39.9188 -60.077
rtoes 1.63997e-013
lfemur -5.09557 1.22384 -38.5415
ltibia 25.6784
lfoot -21.6574 -15.5076
ltoes -4.52235e-014
348
root 11.3276 17.5338 -12.1962 -176.729 4.31542 -191.341
lowerback -3.78595 -0.230949 -3.95519
upperback -0.263057 -0.0207123 -1.9018
thorax 1.85639 -0.000349476 0.263277
lowerneck -11.6601 -2.02258 -11.1802
upperneck 27.6125 -0.350888 6.56581
head 10.8753 0.115416 4.39997
rclavicle -3.2551e-015 -1.27222e-014
rhumerus -85.7537 29.7939 -120.058
rradius 86.3845
rwrist 28.8563
rhand -48.165 -3.82649
rfingers 7.12502
rthumb -20.827 -32.7287
lclavicle -3.2551e-015 -1.27222e-014
lhumerus -86.8524 -46.6802 116.353
lradius 82.3623
lwrist -27.4962
lhand -39.3875 -3.20205
lfingers 7.12502
lthumb -12.3772 26.4115
rfemur 386.772 -216.865 29.4864
rtibia 28.758
rfoot -44.8273 -59.2236
rtoes -1.86559e-013
lfemur -4.1114 1.57299 -39.0586
ltibia 25.0009
lfoot -21.929 -15.7526
ltoes 4.52235e-014
349
root 11.3164 17.4968 -12.3837 -176.635 4.2697 -191.878
lowerback -3.91219 -0.316936 -4.34532
upperback -0.318066 -0.104369 -1.93662
thorax 1.87466 -0.0412696 0.440686
lowerneck -11.6595 -1.9013 -10.9926
upperneck 27.5206 -0.0694849 5.9827
head 10.8166 0.192647 4.18031
rclavicle 3.32964e-015 3.65764e-014
rhumerus -85.5763 29.5802 -119.812
rradius 86.3786
rwrist 28.9694
rhand -48.1502 -3.45248
rfingers 7.12502
rthumb -20.8127 -32.3562
lclavicle 3.32964e-015 3.65764e-014
lhumerus -86.9142 -46.6831 116.488
lradius 82.163
lwrist -27.921
lhand -39.4875 -2.93761
lfingers 7.12502
lthumb -12.4737 26.6701
rfemur 389.33 -218.002 31.4939
rtibia 28.1605
rfoot -48.7421 -58.3033
rtoes -1.24737e-014
lfemur -3.17063 1.65989 -39.7079
ltibia 24.2354
lfoot -22.0007 -16.023
ltoes 2.96189e-014
350
root 11.3148 17.4506 -12.5746 -176.61 4.15407 -192.287
lowerback -4.00213 -0.384717 -4.6635
upperback -0.306787 -0.169134 -1.9512
thorax 1.9407 -0.075249 0.599317
lowerneck -11.7602 -1.8325 -10.9997
upperneck 27.4897 0.0930622 5.76371
head 10.8118 0.237835 4.11937
rclavicle -7.72775e-015 2.94201e-014
rhumerus -85.5494 29.479 -119.621
rradius 86.5505
rwrist 28.871
rhand -47.6773 -2.99358
rfingers 7.12502
rthumb -20.3583 -31.9465
lclavicle -7.72775e-015 2.94201e-014
lhumerus -87.2373 -46.9753 116.854
lradius 82.2555
lwrist -27.5204
lhand -39.5603 -3.17982
lfingers 7.12502
lthumb -12.5439 26.4236
rfemur 391.085 -218.691 32.9214
rtibia 27.8592
rfoot -51.4431 -57.8555
rtoes 3.75703e-014
lfemur -2.05563 1.42966 -40.1954
ltibia 23.4195
lfoot -22.0364 -16.1511
ltoes -3.58309e-014
351
root 11.3097 17.4194 -12.7642 -176.567 3.94089 -192.277
lowerback -4.07365 -0.438012 -4.48561
upperback -0.310535 -0.248317 -1.91016
thorax 1.97957 -0.115616 0.537355
lowerneck -11.78 -1.73935 -10.842
upperneck 27.4836 0.283094 5.44718
head 10.7981 0.305225 3.99845
rclavicle 1.06101e-014 7.95139e-015
rhumerus -85.3266 29.1877 -119.276
rradius 86.6829
rwrist 29.2118
rhand -47.6586 -3.0308
rfingers 7.12502
rthumb -20.3404 -31.9856
lclavicle 1.06101e-014 7.95139e-015
lhumerus -87.5626 -47.3272 117.212
lradius 82.1726
lwrist -27.4474
lhand -39.4384 -3.20902
lfingers 7.12502
lthumb -12.4264 26.4016
rfemur 392.101 -218.997 34.024
rtibia 27.7391
rfoot -53.62 -57.2861
rtoes 3.04538e-013
lfemur -0.927817 1.54106 -40.2088
ltibia 22.6098
lfoot -22.1381 -16.4378
ltoes -2.77802e-014
352
root 11.3036 17.382 -12.9559 -176.484 3.71429 -192.638
lowerback -4.18737 -0.522709 -4.73379
upperback -0.307912 -0.3394 -1.89719
thorax 2.05183 -0.163215 0.683147
lowerneck -11.8315 -1.68252 -10.8918
upperneck 27.3537 0.428534 5.20687
head 10.7499 0.33445 3.9303
rclavicle 5.91384e-015 -3.10104e-014
rhumerus -84.9721 28.9718 -118.78
rradius 86.7058
rwrist 29.5735
rhand -47.3322 -2.58799
rfingers 7.12502
rthumb -20.0266 -31.5759
lclavicle 5.91384e-015 -3.10104e-014
lhumerus -87.885 -47.4567 117.757
lradius 82.0317
lwrist -27.2929
lhand -39.6463 -2.97181
lfingers 7.12502
lthumb -12.6268 26.6265
rfemur 392.534 -218.971 34.0389
rtibia 27.7821
rfoot -54.9 -57.0107
rtoes 6.10269e-014
lfemur 0.0942867 1.47812 -40.6269
ltibia 21.8739
lfoot -22.1015 -16.6923
ltoes 5.30258e-014
